<svg width="143" height="33" viewBox="0 0 143 33" fill="none" xmlns="http://www.w3.org/2000/svg">
<g clip-path="url(#clip0_855_2306)">
<path d="M130.054 17.448L139.947 32.1961C139.675 32.5666 131.879 32.358 130.775 32.286C129.043 29.6652 126.798 27.0354 125.227 24.3427C125.021 23.9865 124.816 23.6376 124.835 23.2041C126.578 21.1121 128.149 19.3871 130.052 17.448L130.054 17.448Z" fill="#3175FF"/>
<path d="M123.755 22.4846L113.862 7.73653C114.133 7.36599 121.929 7.57464 123.034 7.64659C124.766 10.2674 127.011 12.8972 128.581 15.5899C128.788 15.9461 128.993 16.2951 128.973 16.7286C127.23 18.8205 125.66 20.5455 123.757 22.4846H123.755Z" fill="#3175FF"/>
<path d="M111.04 32.1242C115.062 29.2443 118.841 26.0263 122.316 22.4846C124.219 20.5455 125.789 18.8205 127.532 16.7285C127.633 16.608 127.892 16.4929 128.067 16.2788C128.712 15.491 133.121 9.7727 133.11 9.26545C131.576 8.66286 129.759 8.86252 128.214 8.39305C127.887 8.29411 127.61 8.37146 127.712 7.91637L142.095 1.15662L142.558 1.25375L143 18.5273L139.496 13.8523C137.287 16.9624 134.855 19.862 132.38 22.7526L126.813 28.9601C125.71 30.0268 124.591 31.0593 123.456 32.0576L111.04 32.1242Z" fill="#FFCC00"/>
<path d="M16.9983 0C26.0803 1.00551 30.3757 12.836 23.8624 19.0057C23.3731 19.4698 21.2416 20.5635 21.2272 21.1319L27.5193 32.018H17.806L12.014 22.5223C10.8861 22.4396 9.73851 22.4234 8.63227 22.6644V31.7482C8.63227 31.768 8.38224 32.018 8.36246 32.018H0V0.269815C0 0.250028 0.250028 0 0.269815 0H16.9983ZM15.3794 7.73469C13.3864 7.40372 10.5444 7.98112 8.45419 7.73469V15.6493H15.0197C16.1277 15.6493 17.8851 14.1797 18.297 13.1706C19.1568 11.0732 17.5973 8.10164 15.3794 7.73469Z" fill="#3175FF"/>
<path d="M101.81 32.018C102.147 29.3576 100.301 31.347 98.9735 31.7895C90.8934 34.4787 84.542 26.7656 84.8928 19.1478C85.2795 10.7548 93.5808 4.00222 101.362 9.17187C101.646 9.32657 101.808 8.41099 101.808 8.36423V0.899353H109.993C110.013 0.899353 110.263 1.14938 110.263 1.16917V31.7482C110.263 31.768 110.013 32.018 109.993 32.018H101.808H101.81ZM101.215 23.1483C102.864 20.9106 102.012 16.6781 99.362 15.4873C94.8579 13.4637 91.5842 19.745 94.3399 23.2076C95.5055 24.6718 97.5992 25.4957 99.3926 24.6538C99.5491 24.5801 101.132 23.258 101.213 23.1483H101.215Z" fill="#3175FF"/>
<path d="M49.3994 9.78172C56.9434 14.7301 56.8229 25.5479 49.3418 30.5449C42.6864 34.9914 32.8543 32.5487 29.7047 25.0658C24.652 13.0573 38.7453 2.79351 49.3994 9.78172ZM44.7172 16.2681C40.4397 12.7173 34.9355 18.5471 38.0564 23.0134C40.2401 26.1379 45.1057 25.6126 46.3181 21.9432C46.9261 20.0994 46.2174 17.5128 44.719 16.2681H44.7172Z" fill="#3175FF"/>
<path d="M79.7481 11.8089C87.8677 20.8279 80.3399 33.6567 68.6264 32.7339C63.1167 32.3004 57.9453 27.8701 57.0423 22.373C54.9521 9.63238 71.3875 2.52187 79.7481 11.8089ZM73.5082 16.6098C68.8656 11.3898 61.5464 19.9411 67.1891 24.2779C71.9972 27.9744 77.264 20.8315 73.5082 16.6098Z" fill="#3175FF"/>
</g>
<defs>
<clipPath id="clip0_855_2306">
<rect width="143" height="32.7825" fill="white"/>
</clipPath>
</defs>
</svg>
