<svg width="158" height="38" viewBox="0 0 158 38" fill="none" xmlns="http://www.w3.org/2000/svg">
<g clip-path="url(#clip0_10_10766)">
<path d="M143.709 20.1761L154.63 36.5903C154.33 37.0027 145.724 36.7705 144.505 36.6904C142.593 33.7735 140.115 30.8466 138.381 27.8497C138.153 27.4533 137.927 27.0649 137.948 26.5824C139.873 24.2541 141.606 22.3342 143.707 20.1761L143.709 20.1761Z" fill="#EAF1FF"/>
<path d="M136.755 25.7809L125.834 9.36675C126.134 8.95435 134.74 9.18658 135.959 9.26665C137.871 12.1835 140.349 15.1104 142.083 18.1074C142.311 18.5037 142.537 18.8921 142.515 19.3746C140.591 21.7029 138.858 23.6228 136.757 25.7809H136.755Z" fill="#EAF1FF"/>
<path d="M122.719 36.5099C127.159 33.3047 131.331 29.7232 135.167 25.7813C137.268 23.6232 139.001 21.7033 140.925 19.375C141.036 19.2409 141.322 19.1127 141.515 18.8745C142.228 17.9976 147.095 11.6334 147.083 11.0688C145.389 10.3982 143.383 10.6204 141.678 10.0979C141.316 9.98776 141.011 10.0738 141.124 9.56735L157.001 2.04395L157.511 2.15205L158 21.377L154.132 16.1739C151.693 19.6353 149.009 22.8624 146.277 26.0796L140.131 32.9884C138.914 34.1756 137.679 35.3247 136.426 36.4358L122.719 36.5099Z" fill="#FFCC00"/>
<path d="M18.907 0.756836C28.9326 1.87594 33.6743 15.0429 26.4843 21.9097C25.9442 22.4262 23.5912 23.6434 23.5753 24.276L30.5211 36.3919H19.7986L13.4048 25.8235C12.1597 25.7314 10.8929 25.7134 9.67173 25.9817V36.0916C9.67173 36.1136 9.39572 36.3919 9.37388 36.3919H0.142578V1.05713C0.142578 1.03511 0.418584 0.756836 0.440426 0.756836H18.907ZM17.1199 9.36531C14.9198 8.99695 11.7825 9.63958 9.47515 9.36531V18.174H16.7228C17.9459 18.174 19.8859 16.5384 20.3406 15.4153C21.2898 13.081 19.5682 9.77371 17.1199 9.36531Z" fill="#EAF1FF"/>
<path d="M112.53 36.3919C112.902 33.431 110.864 35.6452 109.399 36.1377C100.479 39.1306 93.4679 30.5462 93.8551 22.0678C94.2821 12.7266 103.446 5.21121 112.036 10.9649C112.35 11.137 112.528 10.118 112.528 10.066V1.75781H121.563C121.585 1.75781 121.861 2.03609 121.861 2.05811V36.0916C121.861 36.1136 121.585 36.3919 121.563 36.3919H112.528H112.53ZM111.873 26.5202C113.694 24.0297 112.753 19.3191 109.828 17.9938C104.856 15.7416 101.242 22.7325 104.284 26.5863C105.57 28.2159 107.882 29.1328 109.861 28.1958C110.034 28.1138 111.782 26.6423 111.871 26.5202H111.873Z" fill="#EAF1FF"/>
<path d="M54.6738 11.6437C63.0016 17.1511 62.8686 29.1909 54.6103 34.7524C47.2634 39.7013 36.4098 36.9826 32.9329 28.6544C27.3552 15.2892 42.9128 3.866 54.6738 11.6437ZM49.5052 18.8628C44.7833 14.9109 38.7072 21.3993 42.1523 26.3702C44.5629 29.8476 49.9341 29.263 51.2724 25.179C51.9435 23.127 51.1612 20.2481 49.5071 18.8628H49.5052Z" fill="#EAF1FF"/>
<path d="M88.1769 13.8992C97.1401 23.9371 88.8302 38.2151 75.8996 37.1881C69.8175 36.7056 64.1088 31.7748 63.112 25.6568C60.8047 11.4768 78.9476 3.56301 88.1769 13.8992ZM81.2887 19.2424C76.1637 13.4327 68.0841 22.9501 74.3131 27.7768C79.6207 31.8909 85.4347 23.9411 81.2887 19.2424Z" fill="#EAF1FF"/>
</g>
<defs>
<clipPath id="clip0_10_10766">
<rect width="157.857" height="36.4859" fill="white" transform="translate(0.142578 0.756836)"/>
</clipPath>
</defs>
</svg>
